<svg width="32" height="32" viewBox="0 0 32 32" fill="none" xmlns="http://www.w3.org/2000/svg">
<path d="M2.66669 2.66675L5.33335 5.33341M29.3334 2.66675L26.6667 5.33341M29.3334 29.3334L26.6667 26.6667M2.66669 29.3334L5.33335 26.6667M2.66669 21.3334H4.66669M10.6667 2.66675V4.66675M29.3334 10.6667H27.3334M21.3334 29.3334V27.3334M24 21.3334H28.6667M21.3334 2.66675V8.00008M2.66669 10.6667H8.00002M10.6667 29.3334V24.0001M15.2458 10.0877L10.0876 15.2458C9.82359 15.5098 9.69158 15.6419 9.64213 15.7941C9.59862 15.928 9.59862 16.0722 9.64213 16.2061C9.69158 16.3583 9.82359 16.4903 10.0876 16.7543L15.2458 21.9125C15.5098 22.1765 15.6418 22.3085 15.794 22.358C15.9279 22.4015 16.0721 22.4015 16.206 22.358C16.3583 22.3085 16.4903 22.1765 16.7543 21.9125L21.9124 16.7543C22.1765 16.4903 22.3085 16.3583 22.3579 16.2061C22.4014 16.0722 22.4014 15.928 22.3579 15.7941C22.3085 15.6419 22.1765 15.5098 21.9124 15.2458L16.7543 10.0877C16.4903 9.82365 16.3583 9.69165 16.206 9.64219C16.0721 9.59868 15.9279 9.59868 15.794 9.64219C15.6418 9.69165 15.5098 9.82365 15.2458 10.0877Z" stroke="#D6DDE6" stroke-width="2" stroke-linecap="round" stroke-linejoin="round"/>
</svg>
