<svg width="30" height="28" viewBox="0 0 30 28" fill="none" xmlns="http://www.w3.org/2000/svg">
<path d="M21.3519 6.66667C22.0843 5.84833 23.1487 5.33333 24.3334 5.33333C26.5425 5.33333 28.3334 7.12419 28.3334 9.33333C28.3334 11.5425 26.5425 13.3333 24.3334 13.3333H16.3334M8.01855 3.33333C8.75097 2.515 9.81536 2 11 2C13.2092 2 15 3.79086 15 6C15 8.20914 13.2092 10 11 10H1.66669M13.3519 24.6667C14.0843 25.485 15.1487 26 16.3334 26C18.5425 26 20.3334 24.2091 20.3334 22C20.3334 19.7909 18.5425 18 16.3334 18H1.66669" stroke="#D6DDE6" stroke-width="3" stroke-linecap="round" stroke-linejoin="round"/>
</svg>
