<svg width="32" height="32" viewBox="0 0 32 32" fill="none" xmlns="http://www.w3.org/2000/svg">
<path d="M28.554 20.4549C24.7898 23.1327 19.8526 23.4302 15.836 21.3334M3.44592 11.5453C7.21918 8.86096 12.1712 8.56858 16.1931 10.6821M20.4982 18.8325C24.3472 16.4068 26.5758 11.9656 26.1346 7.34971M11.4424 13.205C7.62974 15.6389 5.42611 20.0582 5.86502 24.6505M20.7025 13.5161C20.5252 8.97143 17.7933 4.82254 13.5761 2.89638M11.3008 18.5676C11.5082 23.0795 14.2324 27.1894 18.4237 29.1038M25.4281 6.57199C30.635 11.779 30.635 20.2212 25.4281 25.4281C20.2211 30.6351 11.7789 30.6351 6.5719 25.4281C1.36491 20.2212 1.36491 11.779 6.5719 6.57199C11.7789 1.365 20.2211 1.365 25.4281 6.57199ZM19.7712 12.2288C21.854 14.3116 21.854 17.6885 19.7712 19.7713C17.6884 21.8541 14.3115 21.8541 12.2288 19.7713C10.146 17.6885 10.146 14.3116 12.2288 12.2288C14.3115 10.146 17.6884 10.146 19.7712 12.2288Z" stroke="#D6DDE6" stroke-width="2" stroke-linecap="round" stroke-linejoin="round"/>
</svg>
