<svg width="31" height="28" viewBox="0 0 31 28" fill="none" xmlns="http://www.w3.org/2000/svg">
<path d="M6.16659 15.3333C6.16659 17.5312 7.0529 19.522 8.48758 20.9679C8.62595 21.1074 8.69513 21.1771 8.73597 21.2442C8.77493 21.3081 8.79762 21.3632 8.81502 21.4361C8.83326 21.5124 8.83326 21.5993 8.83326 21.7731V24.9333C8.83326 25.3067 8.83326 25.4934 8.90592 25.636C8.96984 25.7614 9.07183 25.8634 9.19727 25.9273C9.33987 26 9.52656 26 9.89993 26H12.4333C12.8066 26 12.9933 26 13.1359 25.9273C13.2614 25.8634 13.3634 25.7614 13.4273 25.636C13.4999 25.4934 13.4999 25.3067 13.4999 24.9333V24.4C13.4999 24.0266 13.4999 23.8399 13.5726 23.6973C13.6365 23.5719 13.7385 23.4699 13.8639 23.406C14.0065 23.3333 14.1932 23.3333 14.5666 23.3333H16.4333C16.8066 23.3333 16.9933 23.3333 17.1359 23.406C17.2614 23.4699 17.3634 23.5719 17.4273 23.6973C17.4999 23.8399 17.4999 24.0266 17.4999 24.4V24.9333C17.4999 25.3067 17.4999 25.4934 17.5726 25.636C17.6365 25.7614 17.7385 25.8634 17.8639 25.9273C18.0065 26 18.1932 26 18.5666 26H21.1C21.4734 26 21.6601 26 21.8027 25.9273C21.9281 25.8634 22.0301 25.7614 22.094 25.636C22.1667 25.4934 22.1667 25.3067 22.1667 24.9333V23.6324C22.1667 23.363 22.1667 23.2283 22.205 23.1202C22.2418 23.0165 22.2881 22.944 22.3666 22.867C22.4486 22.7867 22.5874 22.7222 22.8649 22.5934C24.1746 21.9854 25.2921 21.0334 26.1015 19.8536C26.2439 19.6461 26.315 19.5423 26.391 19.4811C26.4637 19.4225 26.5289 19.3881 26.6183 19.3613C26.7119 19.3333 26.8229 19.3333 27.045 19.3333H27.7667C28.1401 19.3333 28.3267 19.3333 28.4694 19.2607C28.5948 19.1968 28.6968 19.0948 28.7607 18.9693C28.8334 18.8267 28.8334 18.64 28.8334 18.2667V13.7143C28.8334 13.3589 28.8334 13.1812 28.7673 13.044C28.7018 12.908 28.592 12.7982 28.456 12.7327C28.3189 12.6667 28.1411 12.6667 27.7857 12.6667C27.5284 12.6667 27.3998 12.6667 27.2961 12.6317C27.1844 12.5941 27.1061 12.544 27.025 12.4584C26.9498 12.379 26.8885 12.2462 26.7657 11.9806C26.3718 11.1283 25.8322 10.357 25.179 9.69872C25.0407 9.55927 24.9715 9.48955 24.9306 9.4225C24.8917 9.35852 24.869 9.30345 24.8516 9.23059C24.8334 9.15423 24.8334 9.06734 24.8334 8.89357V7.4141C24.8334 6.93404 24.8334 6.69401 24.7334 6.53267C24.6458 6.39134 24.5086 6.28784 24.3486 6.24246C24.166 6.19066 23.9352 6.2566 23.4737 6.38848L20.3102 7.29229C20.2565 7.30765 20.2296 7.31533 20.2023 7.32072C20.178 7.32551 20.1535 7.32895 20.1288 7.33101C20.1011 7.33333 20.0731 7.33333 20.0172 7.33333H19.4454M6.16659 15.3333C6.16659 12.2612 7.89821 9.59361 10.4386 8.25321M6.16659 15.3333H4.83335C3.36059 15.3333 2.16669 14.1394 2.16669 12.6667C2.16669 11.6796 2.70295 10.8178 3.50002 10.3568M19.5 6.66667C19.5 9.244 17.4107 11.3333 14.8334 11.3333C12.256 11.3333 10.1667 9.244 10.1667 6.66667C10.1667 4.08934 12.256 2 14.8334 2C17.4107 2 19.5 4.08934 19.5 6.66667Z" stroke="#D6DDE6" stroke-width="2.5" stroke-linecap="round" stroke-linejoin="round"/>
</svg>
